<svg width="26" height="28" viewBox="0 0 25.5 28" fill="none" xmlns="http://www.w3.org/2000/svg">
<path d="M0 20.6356L6.78525 16.717L12.7501 20.1627V28L0 20.6356Z" fill="#15649D"/>
<path d="M25.5002 20.6356L18.7149 16.717L12.7501 20.1627V28L25.5002 20.6356Z" fill="#19469D"/>
<path d="M12.7501 6.38952V0H25.5002V5.91658L18.7149 9.8304L12.7501 6.38952Z" fill="white"/>
<path d="M12.7501 6.38952V0H0V5.91658L6.78525 9.8304L12.7501 6.38952Z" fill="#AF2026"/>
<path d="M0 20.6356L6.78525 16.717V9.8304L0 5.91658V20.6356Z" fill="#EE424C"/>
<path d="M25.5002 20.6356L18.7149 16.717V9.8304L25.5002 5.91658V20.6356Z" fill="#3093D0"/>
<path d="M12.7506 13.2761L5.51172 17.4554L12.7506 21.6346V13.2761Z" fill="#3093D0"/>
<path d="M12.7501 13.2761V21.6346L19.989 17.4554L12.7501 13.2761Z" fill="white"/>
<path d="M12.7501 13.2761L19.989 17.4554V9.09686L12.7501 13.2761Z" fill="#AF2026"/>
<path d="M12.7501 13.2761L19.989 9.09686L12.7501 4.91761V13.2761Z" fill="#EE424C"/>
<path d="M12.7506 13.2761V4.91762L5.51172 9.09687L12.7506 13.2761Z" fill="#15649D"/>
<path d="M12.7506 13.2761L5.51172 9.09686V17.4554L12.7506 13.2761Z" fill="#19469D"/>
</svg>
