<?xml version="1.0" encoding="UTF-8"?>
<svg xmlns="http://www.w3.org/2000/svg" viewBox="0 0 880 120" font-family="-apple-system, Segoe UI, Roboto, Helvetica, Arial, sans-serif" role="img" aria-labelledby="title desc">
  <title id="title">Detection pagination controls (wireframe)</title>
  <desc id="desc">Wireframe of the paginator that sits below the result list: a page-size selector labeled "Rows per page" with a 50-row trigger on the left, a locale-formatted range indicator "1–50 of 1,453" centered, First/Previous/Next/Last icon buttons with a "Page 1 of 30" readout grouped on the right, and a "Go to page" number input with a Go submit button and a subtle walking-progress hint below.</desc>

  <style>
    .panel { fill: #ffffff; stroke: #e5e7eb; stroke-width: 1; }
    .divider { stroke: #e5e7eb; stroke-width: 1; }
    .trigger { fill: #ffffff; stroke: #d4d4d8; stroke-width: 1; rx: 6; ry: 6; }
    .btn { fill: #ffffff; stroke: #d4d4d8; stroke-width: 1; rx: 6; ry: 6; }
    .btn-icon { fill: #ffffff; stroke: transparent; rx: 6; ry: 6; }
    .btn-disabled { fill: #f4f4f5; stroke: #e5e7eb; stroke-width: 1; rx: 6; ry: 6; }
    .input { fill: #ffffff; stroke: #d4d4d8; stroke-width: 1; rx: 6; ry: 6; }
    .lbl { font-size: 11px; fill: #71717a; font-weight: 500; }
    .val { font-size: 12px; fill: #18181b; }
    .muted { font-size: 11px; fill: #a1a1aa; }
    .range { font-size: 12px; fill: #52525b; font-variant-numeric: tabular-nums; }
    .chev { stroke: #52525b; stroke-width: 1.5; fill: none; stroke-linecap: round; stroke-linejoin: round; }
    .chev-disabled { stroke: #d4d4d8; stroke-width: 1.5; fill: none; stroke-linecap: round; stroke-linejoin: round; }
  </style>

  <rect x="0" y="0" width="880" height="120" fill="#fafafa" />
  <line x1="16" y1="16" x2="864" y2="16" class="divider" />

  <!-- Page-size selector (left) -->
  <g transform="translate(16, 36)">
    <text class="lbl" x="0" y="12">Rows per page</text>
    <rect class="trigger" x="94" y="0" width="72" height="24" />
    <text class="val" x="106" y="16">50</text>
    <polyline class="chev" points="150,9 156,15 162,9" />
  </g>

  <!-- Range indicator (center) -->
  <g transform="translate(440, 36)">
    <text class="range" x="0" y="16" text-anchor="middle">1–50 of 1,453</text>
  </g>

  <!-- First/Prev/Page-of-total/Next/Last (right, grouped) -->
  <g transform="translate(576, 36)">
    <!-- First (disabled at head) -->
    <rect class="btn-disabled" x="0" y="0" width="28" height="24" />
    <polyline class="chev-disabled" points="16,7 10,12 16,17" />
    <polyline class="chev-disabled" points="20,7 14,12 20,17" />

    <!-- Previous (disabled at head) -->
    <rect class="btn-disabled" x="32" y="0" width="28" height="24" />
    <polyline class="chev-disabled" points="50,7 44,12 50,17" />

    <!-- Page N of M -->
    <text class="range" x="98" y="16" text-anchor="middle">Page 1 of 30</text>

    <!-- Next -->
    <rect class="btn-icon" x="136" y="0" width="28" height="24" />
    <polyline class="chev" points="148,7 154,12 148,17" />

    <!-- Last -->
    <rect class="btn-icon" x="168" y="0" width="28" height="24" />
    <polyline class="chev" points="176,7 182,12 176,17" />
    <polyline class="chev" points="180,7 186,12 180,17" />
  </g>

  <!-- Go to page (far right) -->
  <g transform="translate(700, 36)">
    <text class="lbl" x="0" y="12">Go to page</text>
    <rect class="input" x="66" y="0" width="48" height="24" />
    <text class="muted" x="80" y="16">N</text>
    <rect class="btn" x="118" y="0" width="36" height="24" />
    <text class="val" x="136" y="16" text-anchor="middle">Go</text>
  </g>

  <!-- Walking-progress hint (appears under Go; shown here for the reference wireframe) -->
  <g transform="translate(700, 70)">
    <text class="muted" x="0" y="12">Walking… page 4 of 12</text>
  </g>
</svg>
