<?xml version="1.0" encoding="UTF-8"?>
<svg xmlns="http://www.w3.org/2000/svg" viewBox="0 0 1440 900" role="img"
     aria-label="Wireframe stand-in for the Detection page">
  <title>Detection page (wireframe stand-in)</title>
  <desc>Schematic layout of the Detection page: left nav, saved/recommended rail,
        top bar with Filters button and removable chip bar, header line with the
        result count and Refresh / Download CSV affordances, two-line event rows
        in the Results region, and a collapsed Analytics strip. A real capture
        replaces this once a staging environment with seeded detection data is
        available.</desc>

  <defs>
    <style>
      .bg      { fill: #0f1420; }
      .panel   { fill: #151b2c; stroke: #2a3352; stroke-width: 1; }
      .row     { fill: #131a2c; stroke: #2a3352; stroke-width: 1; }
      .dashed  { fill: none; stroke: #4a5578; stroke-width: 1.5;
                 stroke-dasharray: 6 4; }
      .chip    { fill: #1d2742; stroke: #3a486b; stroke-width: 1; rx: 12; ry: 12; }
      .chipPri { fill: #2749a8; stroke: #3f66c9; stroke-width: 1; rx: 12; ry: 12; }
      .sevHi   { fill: #b3324a; stroke: #d04866; stroke-width: 1; rx: 8; ry: 8; }
      .sevMd   { fill: #2749a8; stroke: #3f66c9; stroke-width: 1; rx: 8; ry: 8; }
      .sevLo   { fill: #2a3352; stroke: #4a5578; stroke-width: 1; rx: 8; ry: 8; }
      .label   { fill: #c8d0e4; font-family: system-ui, sans-serif; font-size: 14px; }
      .labelSm { fill: #8e97ae; font-family: system-ui, sans-serif; font-size: 12px; }
      .labelLg { fill: #e7ebf5; font-family: system-ui, sans-serif; font-size: 16px;
                 font-weight: 600; }
      .muted   { fill: #6d7690; font-family: system-ui, sans-serif; font-size: 12px;
                 font-style: italic; }
      .mono    { fill: #e7ebf5; font-family: ui-monospace, monospace; font-size: 12px; }
      .monoMu  { fill: #8e97ae; font-family: ui-monospace, monospace; font-size: 12px; }
      .sevTx   { fill: #ffffff; font-family: system-ui, sans-serif; font-size: 11px;
                 font-weight: 700; letter-spacing: 0.04em; }
      .x       { fill: #6d7690; font-family: system-ui, sans-serif; font-size: 12px; }
      .watermark { fill: #6d7690; font-family: system-ui, sans-serif; font-size: 11px;
                   letter-spacing: 0.08em; }
    </style>
  </defs>

  <rect class="bg" width="1440" height="900" />

  <!-- Left sidebar -->
  <rect class="panel" x="0" y="0" width="240" height="900" />
  <text class="labelLg" x="72" y="45">Clumit Security</text>
  <g class="label" font-family="system-ui, sans-serif" font-size="14">
    <text x="60" y="138">Home</text>
    <text x="60" y="200">Dashboard</text>
    <text x="60" y="262">Event</text>
  </g>
  <rect x="0" y="296" width="240" height="44" fill="#1a2340" />
  <text class="labelLg" x="60" y="324" font-size="14">Detection</text>
  <g class="label" font-family="system-ui, sans-serif" font-size="14">
    <text x="60" y="382">Triage</text>
    <text x="60" y="444">Report</text>
    <text x="60" y="506">Audit Logs</text>
    <text x="60" y="568">Settings</text>
  </g>

  <!-- Saved / Recommended rail -->
  <rect class="panel" x="240" y="0" width="280" height="900" />
  <text class="labelLg" x="266" y="38">Detection</text>
  <text class="labelSm" x="266" y="92" letter-spacing="0.08em">RECOMMENDED FILTER</text>
  <text class="labelSm" x="266" y="118">No filters yet.</text>
  <text class="labelSm" x="266" y="164" letter-spacing="0.08em">SAVED FILTERS</text>
  <text class="labelSm" x="266" y="190">No filters yet.</text>

  <!-- Top bar -->
  <rect class="panel" x="552" y="32" width="112" height="36" rx="8" ry="8" />
  <text class="label" x="578" y="55">Filters</text>
  <rect class="chip" x="676" y="36" width="120" height="28" />
  <text class="label" x="696" y="55">Last 1 hour</text>
  <text class="x" x="780" y="55">×</text>
  <rect class="chip" x="808" y="36" width="180" height="28" />
  <text class="label" x="828" y="55">Keywords: auth-fail</text>
  <text class="x" x="970" y="55">×</text>
  <rect class="chip" x="1000" y="36" width="148" height="28" />
  <text class="label" x="1020" y="55">Hostnames: 5</text>
  <text class="x" x="1130" y="55">×</text>

  <!-- Result list header -->
  <text class="labelLg" x="552" y="100" font-size="14">
    Detected events 2026-04-22 11:00 – 12:00 / 1,284
  </text>
  <text class="labelSm" x="1208" y="100">Updated just now</text>
  <rect class="panel" x="1300" y="84" width="32" height="24" rx="6" ry="6" />
  <text class="label" x="1308" y="100" font-size="12">⟳</text>
  <rect class="panel" x="1340" y="84" width="72" height="24" rx="6" ry="6" />
  <text class="label" x="1352" y="100" font-size="12">⬇ CSV</text>

  <!-- Results region -->
  <g>
    <!-- Row 1 -->
    <rect class="row" x="552" y="120" width="860" height="62" rx="6" ry="6" />
    <rect class="sevHi" x="568" y="132" width="46" height="20" />
    <text class="sevTx" x="591" y="146" text-anchor="middle">HIGH</text>
    <text class="labelSm" x="624" y="147">2026-04-22 11:48:21</text>
    <text class="label" x="752" y="147">HTTP Threat</text>
    <text class="labelSm" x="848" y="147">· 0.97 · ⊙ 2 policies · 0.87 max</text>
    <text class="mono" x="568" y="170">10.0.0.5:49152</text>
    <text class="monoMu" x="676" y="170">(US)</text>
    <text class="monoMu" x="700" y="170">→</text>
    <text class="mono" x="716" y="170">203.0.113.45:443</text>
    <text class="monoMu" x="848" y="170">(DE) · sensor-edge-01</text>

    <!-- Row 2 -->
    <rect class="row" x="552" y="190" width="860" height="62" rx="6" ry="6" />
    <rect class="sevMd" x="568" y="202" width="60" height="20" />
    <text class="sevTx" x="598" y="216" text-anchor="middle">MEDIUM</text>
    <text class="labelSm" x="638" y="217">2026-04-22 11:46:02</text>
    <text class="label" x="766" y="217">Port Scan</text>
    <text class="labelSm" x="848" y="217">· 0.82</text>
    <text class="mono" x="568" y="240">10.1.4.27</text>
    <text class="monoMu" x="640" y="240">(US)</text>
    <text class="monoMu" x="664" y="240">→</text>
    <text class="mono" x="680" y="240">198.51.100.10:22</text>
    <text class="monoMu" x="800" y="240">+12 more</text>
    <text class="monoMu" x="876" y="240">(BR) · sensor-dmz-02</text>

    <!-- Row 3 -->
    <rect class="row" x="552" y="260" width="860" height="62" rx="6" ry="6" />
    <rect class="sevLo" x="568" y="272" width="38" height="20" />
    <text class="sevTx" x="587" y="286" text-anchor="middle">LOW</text>
    <text class="labelSm" x="616" y="287">2026-04-22 11:42:11</text>
    <text class="label" x="744" y="287">DNS Covert Channel</text>
    <text class="labelSm" x="892" y="287">· 0.61</text>
    <text class="mono" x="568" y="310">10.0.0.18:54237</text>
    <text class="monoMu" x="676" y="310">(US)</text>
    <text class="monoMu" x="700" y="310">→</text>
    <text class="mono" x="716" y="310">93.184.216.34:53</text>
    <text class="monoMu" x="848" y="310">(NL) · sensor-edge-01</text>

    <!-- Ellipsis -->
    <text class="muted" x="982" y="368" text-anchor="middle">… more rows below …</text>
  </g>

  <!-- Analytics strip -->
  <rect class="panel" x="552" y="716" width="860" height="52" rx="8" ry="8" />
  <text class="label" x="576" y="748">▶ Analytics</text>

  <!-- Wireframe watermark -->
  <text class="watermark" x="1412" y="884" text-anchor="end">
    WIREFRAME STAND-IN — replaced with a real capture once staging is available
  </text>
</svg>
