<?xml version="1.0" encoding="UTF-8"?>
<svg xmlns="http://www.w3.org/2000/svg" viewBox="0 0 1200 720" font-family="-apple-system, Segoe UI, Roboto, Helvetica, Arial, sans-serif" role="img" aria-labelledby="title desc">
  <title id="title">Endpoints tab with world map — wireframe</title>
  <desc id="desc">Wireframe of the Endpoints tab on the Event Investigation page: a world map panel at the top with scattered source (circle) and destination (diamond) markers, a legend, and the Source / Destination cards arranged in a two-column grid below.</desc>

  <style>
    .page { fill: #ffffff; stroke: #e5e7eb; stroke-width: 1; }
    .panel { fill: #ffffff; stroke: #d4d4d8; stroke-width: 1; rx: 6; ry: 6; }
    .map-bg { fill: #f4f4f5; stroke: #d4d4d8; stroke-width: 1; }
    .land { fill: #e4e4e7; stroke: #d4d4d8; stroke-width: 0.75; }
    .src { fill: #0ea5e9; stroke: #ffffff; stroke-width: 1.5; }
    .dst { fill: #f43f5e; stroke: #ffffff; stroke-width: 1.5; }
    .h2 { font-size: 14px; font-weight: 600; fill: #18181b; }
    .lbl { font-size: 12px; fill: #52525b; }
    .val { font-size: 12px; fill: #18181b; }
    .muted { font-size: 11px; fill: #71717a; }
    .note { font-size: 11px; font-style: italic; fill: #a16207; }
  </style>

  <rect x="0" y="0" width="1200" height="720" fill="#fafafa" />
  <rect x="24" y="24" width="1152" height="672" class="page" rx="8" ry="8" />

  <!-- Map panel -->
  <rect x="48" y="48" width="1104" height="300" class="panel" />
  <text x="64" y="76" class="h2">Endpoint map</text>

  <!-- Legend -->
  <g transform="translate(920, 66)">
    <circle cx="0" cy="0" r="5" class="src" />
    <text x="10" y="4" class="muted">Source</text>
    <g transform="translate(78, 0) rotate(45)">
      <rect x="-4" y="-4" width="8" height="8" class="dst" />
    </g>
    <text x="92" y="4" class="muted">Destination</text>
  </g>

  <!-- Simplified map -->
  <g transform="translate(64, 92)">
    <rect x="0" y="0" width="1072" height="240" class="map-bg" rx="4" ry="4" />
    <!-- Rough continental shapes as simplified blobs -->
    <path class="land" d="M90,80 q30,-30 70,-20 q40,10 60,40 q10,30 -20,60 q-50,20 -80,10 q-50,-20 -40,-60 q0,-20 10,-30z" />
    <path class="land" d="M240,70 q40,-25 80,-10 q40,20 60,60 q0,30 -30,50 q-60,20 -90,0 q-40,-20 -40,-60 q0,-30 20,-40z" />
    <path class="land" d="M430,60 q80,-20 170,-10 q90,10 150,40 q30,30 -20,60 q-120,40 -250,30 q-80,-10 -90,-50 q-5,-40 40,-70z" />
    <path class="land" d="M760,70 q80,-10 150,20 q50,30 40,70 q-30,40 -120,50 q-80,0 -110,-40 q-20,-40 10,-70 q15,-20 30,-30z" />
    <path class="land" d="M360,160 q20,-10 50,0 q30,20 20,50 q-10,20 -40,30 q-40,0 -50,-30 q-10,-30 20,-50z" />
    <path class="land" d="M880,170 q30,-10 60,0 q30,20 20,40 q-20,20 -50,20 q-30,0 -40,-20 q-10,-20 10,-40z" />

    <!-- Markers (sources = circles, destinations = diamonds) -->
    <g>
      <circle cx="180" cy="110" r="5" class="src"><title>10.0.0.1 · KR</title></circle>
      <circle cx="260" cy="130" r="5" class="src"><title>10.0.0.2 · KR</title></circle>
      <circle cx="470" cy="95" r="5" class="src"><title>10.0.0.3 · DE</title></circle>
    </g>
    <g>
      <g transform="translate(820, 100) rotate(45)"><rect x="-4" y="-4" width="8" height="8" class="dst"><title>203.0.113.10 · US</title></rect></g>
      <g transform="translate(900, 130) rotate(45)"><rect x="-4" y="-4" width="8" height="8" class="dst"><title>203.0.113.11 · US</title></rect></g>
      <g transform="translate(760, 170) rotate(45)"><rect x="-4" y="-4" width="8" height="8" class="dst"><title>203.0.113.12 · US</title></rect></g>
      <g transform="translate(400, 175) rotate(45)"><rect x="-4" y="-4" width="8" height="8" class="dst"><title>198.51.100.5 · FR</title></rect></g>
    </g>
  </g>

  <!-- Source card -->
  <rect x="48" y="372" width="540" height="300" class="panel" />
  <text x="64" y="400" class="h2">Source</text>
  <g transform="translate(64, 420)">
    <text x="0" y="18" class="lbl">IP</text>        <text x="120" y="18" class="val">10.0.0.1</text>
    <text x="0" y="42" class="lbl">Country</text>   <text x="120" y="42" class="val">KR · Republic of Korea</text>
    <text x="0" y="66" class="lbl">Region</text>    <text x="120" y="66" class="val">Seoul</text>
    <text x="0" y="90" class="lbl">City</text>      <text x="120" y="90" class="val">Seoul</text>
    <text x="0" y="114" class="lbl">Coordinates</text><text x="120" y="114" class="val">37.5665, 126.9780</text>
    <text x="0" y="138" class="lbl">Ports</text>    <text x="120" y="138" class="val">443</text>
    <text x="0" y="162" class="lbl">Company</text>  <text x="120" y="162" class="val">Example Corp (from customer)</text>
  </g>

  <!-- Destination card -->
  <rect x="612" y="372" width="540" height="300" class="panel" />
  <text x="628" y="400" class="h2">Destination</text>
  <g transform="translate(628, 420)">
    <text x="0" y="18" class="lbl">IP</text>        <text x="120" y="18" class="val">203.0.113.10</text>
    <text x="0" y="42" class="lbl">Country</text>   <text x="120" y="42" class="val">US · United States</text>
    <text x="0" y="66" class="lbl">Region</text>    <text x="120" y="66" class="val">California</text>
    <text x="0" y="90" class="lbl">City</text>      <text x="120" y="90" class="val">San Francisco</text>
    <text x="0" y="114" class="lbl">Coordinates</text><text x="120" y="114" class="val">37.7749, -122.4194</text>
    <text x="0" y="138" class="lbl">Ports</text>    <text x="120" y="138" class="val">80, 443</text>
    <text x="0" y="162" class="lbl">Company</text>  <text x="120" y="162" class="val">Example ISP (from IP enrichment)</text>
  </g>

  <text x="64" y="700" class="note">Wireframe stand-in — replace with a real capture once a staging environment is available.</text>
</svg>
