<?xml version="1.0" encoding="UTF-8"?>
<svg xmlns="http://www.w3.org/2000/svg" viewBox="0 0 760 460" font-family="-apple-system, Segoe UI, Roboto, Helvetica, Arial, sans-serif" role="img" aria-labelledby="title desc">
  <title id="title">Event page — Statistics view (wireframe)</title>
  <desc id="desc">Wireframe of the /event page Statistics view. A view-mode toggle at the top offers Events and Statistics, with Statistics active. A Filters card holds a multi-select sensor list (checkboxes), a quick-range dropdown, start/end time inputs, and a protocol multi-select constrained to the allowed Giganto protocol keys, with Apply and Reset buttons. Below it a metric selector (bits per second, packets per second, events per second, count, size) sits above a line chart that draws one series per protocol over time, with a legend. The X-axis shows time and the Y-axis shows the selected metric.</desc>
  <style>
    .bg { fill: #fafafa; }
    .panel { fill: #ffffff; stroke: #e5e7eb; stroke-width: 1; }
    .field { fill: #ffffff; stroke: #d4d4d8; stroke-width: 1; }
    .h1 { font-size: 18px; fill: #18181b; font-weight: 700; }
    .sub { font-size: 11px; fill: #71717a; }
    .label { font-size: 10px; fill: #52525b; font-weight: 600; }
    .val { font-size: 11px; fill: #18181b; }
    .muted { font-size: 10px; fill: #a1a1aa; }
    .btn { fill: #18181b; }
    .btn-text { fill: #ffffff; font-size: 11px; font-weight: 600; }
    .btn-outline { fill: #ffffff; stroke: #d4d4d8; stroke-width: 1; }
    .btn-outline-text { fill: #18181b; font-size: 11px; font-weight: 600; }
    .tab-on { fill: #18181b; }
    .tab-on-text { fill: #ffffff; font-size: 11px; font-weight: 600; }
    .tab-off { fill: #f4f4f5; stroke: #e5e7eb; stroke-width: 1; }
    .tab-off-text { fill: #52525b; font-size: 11px; font-weight: 600; }
    .axis { stroke: #d4d4d8; stroke-width: 1; }
    .s1 { stroke: #2563eb; stroke-width: 2; fill: none; }
    .s2 { stroke: #dc2626; stroke-width: 2; fill: none; }
  </style>
  <rect class="bg" x="0" y="0" width="760" height="460" />

  <text class="h1" x="24" y="34">Event</text>
  <text class="sub" x="24" y="52">Browse source events collected by Giganto.</text>

  <!-- View-mode toggle -->
  <rect class="tab-off" x="24" y="66" width="80" height="26" rx="6" />
  <text class="tab-off-text" x="64" y="83" text-anchor="middle">Events</text>
  <rect class="tab-on" x="106" y="66" width="92" height="26" rx="6" />
  <text class="tab-on-text" x="152" y="83" text-anchor="middle">Statistics</text>

  <!-- Filters card -->
  <rect class="panel" x="24" y="104" width="712" height="120" rx="8" />
  <text class="label" x="40" y="126">SENSORS</text>
  <rect class="field" x="40" y="134" width="120" height="20" rx="4" />
  <text class="val" x="48" y="148">☑ sensor-a</text>
  <rect class="field" x="168" y="134" width="120" height="20" rx="4" />
  <text class="val" x="176" y="148">☐ sensor-b</text>
  <text class="label" x="320" y="126">TIME RANGE</text>
  <rect class="field" x="320" y="134" width="180" height="20" rx="4" />
  <text class="muted" x="328" y="148">Start — End</text>
  <text class="label" x="40" y="176">PROTOCOLS</text>
  <rect class="field" x="40" y="184" width="70" height="20" rx="4" />
  <text class="val" x="48" y="198">☑ Conn</text>
  <rect class="field" x="118" y="184" width="70" height="20" rx="4" />
  <text class="val" x="126" y="198">☑ DNS</text>
  <rect class="field" x="196" y="184" width="70" height="20" rx="4" />
  <text class="val" x="204" y="198">☐ TLS</text>
  <rect class="btn" x="600" y="184" width="60" height="24" rx="6" />
  <text class="btn-text" x="630" y="200" text-anchor="middle">Apply</text>
  <rect class="btn-outline" x="668" y="184" width="60" height="24" rx="6" />
  <text class="btn-outline-text" x="698" y="200" text-anchor="middle">Reset</text>

  <!-- Metric selector + chart -->
  <text class="label" x="24" y="252">METRIC</text>
  <rect class="field" x="72" y="240" width="160" height="20" rx="4" />
  <text class="val" x="80" y="254">Bits per second ▾</text>

  <rect class="panel" x="24" y="272" width="712" height="164" rx="8" />
  <line class="axis" x1="60" y1="296" x2="60" y2="408" />
  <line class="axis" x1="60" y1="408" x2="708" y2="408" />
  <polyline class="s1" points="60,392 180,360 300,372 420,320 540,336 660,300" />
  <polyline class="s2" points="60,400 180,388 300,396 420,378 540,384 660,372" />
  <rect x="600" y="284" width="10" height="10" fill="#2563eb" />
  <text class="muted" x="614" y="293">Conn</text>
  <rect x="656" y="284" width="10" height="10" fill="#dc2626" />
  <text class="muted" x="670" y="293">DNS</text>
</svg>
