<?xml version="1.0" encoding="UTF-8"?>
<svg xmlns="http://www.w3.org/2000/svg" viewBox="0 0 900 560" font-family="-apple-system, Segoe UI, Roboto, Helvetica, Arial, sans-serif, 'Noto Sans KR', 'Apple SD Gothic Neo', 'Malgun Gothic'" role="img" aria-labelledby="title desc">
  <title id="title">드래프트 저장 정상 흐름 — 와이어프레임</title>
  <desc id="desc">저장이 성공한 직후의 노드 목록 화면 와이어프레임. 다이얼로그가 닫히고 행에 대기 중 배지가 표시되며, 토스트로 서비스별 service.draft_save 감사 항목이 기록되었음을 안내합니다.</desc>

  <style>
    .page { fill: #ffffff; stroke: #e5e7eb; stroke-width: 1; }
    .panel { fill: #ffffff; stroke: #d4d4d8; stroke-width: 1; rx: 6; ry: 6; }
    .chip { fill: #f4f4f5; stroke: #d4d4d8; stroke-width: 1; rx: 4; ry: 4; }
    .badge-pending { fill: #fef3c7; stroke: #b45309; stroke-width: 1; rx: 4; ry: 4; }
    .toast-ok { fill: #ecfdf5; stroke: #047857; stroke-width: 1; rx: 6; ry: 6; }
    .placeholder { fill: #fafafa; stroke: #d4d4d8; stroke-dasharray: 4 3; stroke-width: 1; rx: 6; ry: 6; }
    .h1 { font-size: 18px; font-weight: 600; fill: #18181b; }
    .h2 { font-size: 13px; font-weight: 600; fill: #18181b; }
    .lbl { font-size: 12px; fill: #52525b; }
    .val { font-size: 12px; fill: #18181b; }
    .muted { font-size: 11px; fill: #71717a; }
    .note { font-size: 11px; font-style: italic; fill: #a16207; }
    .toast-text { font-size: 12px; font-weight: 500; fill: #047857; }
    .badge-text { font-size: 11px; font-weight: 600; fill: #b45309; }
  </style>

  <rect x="0" y="0" width="900" height="560" fill="#fafafa" />
  <rect x="16" y="16" width="868" height="528" class="page" rx="8" ry="8" />

  <g transform="translate(40, 48)">
    <text class="h1">설정 · 노드</text>
    <text class="muted" x="0" y="20">저장 후: 다이얼로그 닫힘, 드래프트 보존, 행에 대기 중 표시.</text>
  </g>

  <g transform="translate(40, 100)">
    <rect x="0" y="0" width="820" height="32" class="chip" />
    <text class="h2" x="16" y="20">이름</text>
    <text class="h2" x="220" y="20">고객</text>
    <text class="h2" x="380" y="20">호스트명</text>
    <text class="h2" x="560" y="20">서비스</text>
    <text class="h2" x="720" y="20">매니저</text>
  </g>

  <g transform="translate(40, 140)">
    <rect x="0" y="0" width="820" height="60" class="panel" />
    <rect x="0" y="0" width="6" height="60" fill="#b45309" />
    <rect x="16" y="14" width="76" height="20" class="badge-pending" />
    <text x="54" y="28" text-anchor="middle" class="badge-text">대기 중</text>
    <text class="val" x="100" y="28">node-alpha</text>
    <text class="muted" x="100" y="46">엣지 클러스터 · 서울</text>
    <text class="val" x="220" y="36">Acme Corp</text>
    <text class="val" x="380" y="36">node-alpha.local</text>
    <g transform="translate(560, 18)">
      <rect x="0" y="0" width="14" height="14" rx="3" ry="3" fill="#10b981" />
      <circle cx="18" cy="3" r="3" fill="#f59e0b" />
      <text class="muted" x="28" y="11">Sensor (드래프트)</text>
      <rect x="0" y="22" width="14" height="14" rx="3" ry="3" fill="#10b981" />
      <text class="muted" x="22" y="33">Data Store</text>
    </g>
    <text class="val" x="720" y="36">실행 중</text>
  </g>

  <g transform="translate(540, 220)">
    <rect x="0" y="0" width="320" height="74" class="toast-ok" />
    <text class="toast-text" x="16" y="22">✓ 드래프트가 저장되었습니다.</text>
    <text class="muted" x="16" y="42">service.draft_save 감사 항목 1건 기록</text>
    <text class="muted" x="16" y="58">(Sensor · node-alpha).</text>
  </g>

  <g transform="translate(40, 260)">
    <rect x="0" y="0" width="500" height="100" class="placeholder" />
    <text class="h2" x="16" y="22">감사 로그 미리보기</text>
    <text class="muted" x="16" y="44">action: service.draft_save</text>
    <text class="muted" x="16" y="60">target: service · targetId: ${nodeId}:SENSOR</text>
    <text class="muted" x="16" y="76">details: { serviceKind: "SENSOR", nodeId }</text>
    <text class="muted" x="16" y="92">actor: 현재 계정 · sid: 현재 세션</text>
  </g>

  <g transform="translate(40, 380)">
    <text class="lbl">대기 중인 드래프트는 운영자가 적용(Apply)을 실행하기 전까지 그대로 유지됩니다.</text>
    <text class="lbl" y="16">적용 화면은 동일 단계의 다른 서브 이슈에서 다룹니다.</text>
  </g>

  <g transform="translate(40, 500)">
    <text class="note">와이어프레임 대체 자료 — 수정 다이얼로그 UI 머지 후 실제 PNG 캡처로 교체됩니다.</text>
  </g>
</svg>
