<?xml version="1.0" encoding="UTF-8"?>
<svg xmlns="http://www.w3.org/2000/svg" viewBox="0 0 720 320" font-family="-apple-system, Segoe UI, Roboto, Helvetica, Arial, sans-serif" role="img" aria-labelledby="title desc">
  <title id="title">Asset-detail event rows with the per-row Investigate deep link (wireframe)</title>
  <desc id="desc">Wireframe of the asset-detail panel's event table. A trailing "Investigate" column adds an external-link action button to each row. The whole row also behaves as a link: clicking anywhere on it, or pressing Enter/Space while it is focused, opens the full Event Investigation view for that event in a new browser tab. A tooltip on the action button reads "Open the full investigation view for this event in a new tab."</desc>
  <style>
    .bg { fill: #fafafa; }
    .panel { fill: #ffffff; stroke: #e5e7eb; stroke-width: 1; }
    .text-section { font-size: 11px; fill: #71717a; font-weight: 600; letter-spacing: 0.5px; text-transform: uppercase; }
    .text-address { font-family: ui-monospace, SFMono-Regular, Menlo, monospace; font-size: 16px; fill: #18181b; }
    .text-meta { font-size: 11px; fill: #71717a; }
    .text-th { font-size: 10px; fill: #71717a; font-weight: 600; letter-spacing: 0.5px; text-transform: uppercase; }
    .text-mono { font-family: ui-monospace, SFMono-Regular, Menlo, monospace; font-size: 11px; fill: #18181b; }
    .text-kind { font-size: 11px; fill: #18181b; }
    .text-category-muted { font-size: 11px; fill: #71717a; }
    .row-divider { stroke: #f4f4f5; stroke-width: 1; }
    .row-focus { fill: #f4f4f5; stroke: #2563eb; stroke-width: 1.5; }
    .action-btn { fill: none; stroke: #d4d4d8; stroke-width: 1; }
    .action-icon { stroke: #2563eb; stroke-width: 1.5; fill: none; stroke-linecap: round; stroke-linejoin: round; }
    .tooltip-box { fill: #18181b; }
    .tooltip-text { fill: #ffffff; font-size: 10px; }
  </style>

  <rect class="bg" width="720" height="320"/>

  <!-- Asset detail panel -->
  <rect class="panel" x="24" y="20" width="672" height="280" rx="6" ry="6"/>

  <!-- Header -->
  <text x="40" y="46" class="text-section">Asset detail</text>
  <text x="40" y="72" class="text-address">10.0.0.42</text>
  <text x="40" y="90" class="text-meta">Customer: Default</text>

  <!-- Events heading -->
  <text x="40" y="124" class="text-section">Events</text>

  <!-- Table header -->
  <text x="40" y="146" class="text-th">Time</text>
  <text x="210" y="146" class="text-th">Kind</text>
  <text x="360" y="146" class="text-th">Category</text>
  <text x="560" y="146" class="text-th" text-anchor="end">Score</text>
  <text x="664" y="146" class="text-th" text-anchor="end">Investigate</text>
  <line x1="40" y1="152" x2="664" y2="152" class="row-divider"/>

  <!-- Row 1: focused / hovered — the whole row is a link -->
  <rect class="row-focus" x="34" y="160" width="636" height="24" rx="3" ry="3"/>
  <text x="44" y="176" class="text-mono">2026-05-09 11:58:02</text>
  <text x="210" y="176" class="text-kind">DnsCovertChannel</text>
  <text x="360" y="176" class="text-category-muted">EXFILTRATION</text>
  <text x="560" y="176" class="text-mono" text-anchor="end">0.97</text>
  <!-- External-link action button -->
  <rect class="action-btn" x="640" y="163" width="20" height="18" rx="3" ry="3"/>
  <path class="action-icon" d="M650 169 h5 v5 M655 169 l-6 6 M647 169 h-1 a1 1 0 0 0 -1 1 v4 a1 1 0 0 0 1 1 h4 a1 1 0 0 0 1 -1 v-1"/>

  <!-- Row 2 -->
  <text x="44" y="206" class="text-mono">2026-05-09 11:42:18</text>
  <text x="210" y="206" class="text-kind">HttpThreat</text>
  <text x="360" y="206" class="text-category-muted">IMPACT</text>
  <text x="560" y="206" class="text-mono" text-anchor="end">0.88</text>
  <rect class="action-btn" x="640" y="193" width="20" height="18" rx="3" ry="3"/>
  <path class="action-icon" d="M650 199 h5 v5 M655 199 l-6 6 M647 199 h-1 a1 1 0 0 0 -1 1 v4 a1 1 0 0 0 1 1 h4 a1 1 0 0 0 1 -1 v-1"/>
  <line x1="40" y1="216" x2="664" y2="216" class="row-divider"/>

  <!-- Row 3 -->
  <text x="44" y="236" class="text-mono">2026-05-09 11:31:55</text>
  <text x="210" y="236" class="text-kind">LockyRansomware</text>
  <text x="360" y="236" class="text-category-muted">IMPACT</text>
  <text x="560" y="236" class="text-mono" text-anchor="end">0.74</text>
  <rect class="action-btn" x="640" y="223" width="20" height="18" rx="3" ry="3"/>
  <path class="action-icon" d="M650 229 h5 v5 M655 229 l-6 6 M647 229 h-1 a1 1 0 0 0 -1 1 v4 a1 1 0 0 0 1 1 h4 a1 1 0 0 0 1 -1 v-1"/>

  <!-- Tooltip on the focused row's action button -->
  <rect class="tooltip-box" x="404" y="246" width="284" height="22" rx="4" ry="4"/>
  <text x="414" y="261" class="tooltip-text">Open the full investigation view for this event in a new tab.</text>
</svg>
